<svg width="233" height="33" viewBox="0 0 233 33" fill="none" xmlns="http://www.w3.org/2000/svg">
<path d="M0.692002 2.74803V3.90003H10.772V6.78003H12.176V3.90003H21.608V6.78003H23.048V3.90003H33.236V2.74803H23.048V0.0120239H21.608V2.74803H12.176V0.0120239H10.772V2.74803H0.692002ZM28.7 9.15602H8.504C8.972 8.11203 9.44 7.03203 9.8 5.95202L8.432 5.66402C6.956 10.236 4.112 14.34 0.440002 17.688L1.628 18.48C4.112 16.14 6.236 13.404 7.856 10.416H28.664C28.232 23.412 27.764 30 26.828 30.936C26.54 31.224 26.216 31.296 25.784 31.296C24.812 31.332 22.832 31.296 21.68 31.188L21.788 32.52C23.012 32.592 25.1 32.628 26.072 32.592C26.936 32.592 27.476 32.376 27.944 31.944C29.06 30.864 29.636 23.376 30.176 9.15602H29.348H28.7ZM22.58 12.828C21.824 14.268 20.348 16.248 18.836 18.084L19.844 18.624C21.392 16.824 22.868 14.844 23.804 13.332L22.58 12.828ZM6.812 13.548C8.108 15.312 9.044 16.968 9.584 18.516L10.772 17.976C10.16 16.428 9.188 14.772 7.82 12.936L6.812 13.548ZM15.596 20.856V20.568H26.072V19.344H15.596V11.964H14.228V19.344H3.356V20.568H13.256C10.736 24.456 6.344 27.912 2.456 29.784L3.428 30.828C7.28 28.812 11.636 25.32 14.228 21.216V31.44H15.596V22.224C18.548 24.528 21.716 27.264 23.552 29.028L24.452 28.02C22.436 26.22 18.836 23.304 15.596 20.856Z" fill="#56C6D6"/>
<path d="M45.296 0.912025V14.916C45.296 21.216 44.144 27.048 40.328 31.764L41.552 32.628C45.44 27.696 46.736 21.504 46.736 14.916V0.912025H45.296ZM68.372 0.912025V32.592H69.812V0.912025H68.372ZM56.456 3.07203V28.956H57.896V3.07203H56.456Z" fill="#56C6D6"/>
<path d="M83.024 4.00802V5.19603H110.924V4.00802H97.496V0.0120239H96.056V4.00802H83.024ZM80.612 12.216V13.404H113.156V12.216H102.248C103.616 9.98403 104.876 7.53603 105.668 5.70003L104.192 5.26802C103.508 7.14002 102.176 9.80403 100.772 12.216H92.564C92.204 10.272 91.16 7.57203 89.828 5.30402L88.568 5.80802C89.756 7.78802 90.728 10.272 91.124 12.216H80.612ZM87.956 23.592V18.516H105.92V23.592H87.956ZM105.92 31.476V32.592H107.36V17.292H86.552V32.592H87.956V31.476H105.92ZM87.956 30.252V24.78H105.92V30.252H87.956Z" fill="#56C6D6"/>
<path d="M150.488 1.02002C149.3 2.64002 147.032 4.98002 144.8 7.03203L145.916 7.68003C148.184 5.66402 150.38 3.36003 151.748 1.66802L150.488 1.02002ZM122.012 1.84802C124.388 3.79202 126.224 5.73603 127.484 7.53603C128.204 7.06803 128.42 6.92403 128.672 6.81602C127.34 4.98002 125.468 3.07203 123.02 1.05603L122.012 1.84802ZM132.056 4.44002H141.632V8.79602H132.056V4.44002ZM132.056 9.84003H141.632V14.376H132.056V9.84003ZM138.608 20.856H153.044V19.596H137.492V15.564H143.036V3.25203H136.448C137.024 2.20803 137.564 1.12802 137.924 0.228025L136.448 0.0120239C136.16 0.912025 135.62 2.06403 135.044 3.25203H130.688V15.564H136.052V19.596H120.752V20.856H134.9C131.516 25.176 125.54 28.812 120.248 30.756L121.22 31.944C126.584 29.82 132.56 26.004 136.052 21.432V32.592H137.492V21.468C140.984 26.184 146.96 29.82 152.504 31.764L153.512 30.54C147.968 28.776 141.956 25.284 138.608 20.856ZM144.728 10.992C147.68 12.864 150.128 14.628 152.072 16.212L153.08 15.276C151.1 13.692 148.652 11.964 145.628 10.092L144.728 10.992ZM120.608 15.132L121.292 16.392C123.2 15.276 126.584 13.26 128.888 11.856L128.564 10.668C126.188 12.072 122.588 14.088 120.608 15.132Z" fill="#56C6D6"/>
<path d="M185.66 23.196C188.18 19.092 189.656 14.124 190.124 7.86003H193.112V6.52803H181.736C182.348 4.51203 182.816 2.42403 183.14 0.228025L181.808 0.0120239C180.98 5.91603 179.144 11.172 176.012 15.888L177.056 16.752C178.316 14.844 179.36 12.828 180.26 10.74C181.124 15.636 182.384 19.74 184.076 23.124C181.88 26.436 178.856 29.136 174.932 31.584L175.976 32.592C179.648 30.252 182.564 27.624 184.796 24.492C186.812 28.092 189.368 30.792 192.5 32.628L193.58 31.512C190.304 29.676 187.676 26.94 185.66 23.196ZM181.196 8.22003L181.34 7.86003H188.72C188.288 13.512 187.064 18.012 184.94 21.756C183.212 18.12 181.988 13.62 181.196 8.22003ZM160.496 24.06L160.748 25.356C162.8 25.068 165.608 24.672 168.56 24.24V30.54C168.56 31.008 168.416 31.26 167.84 31.296C167.372 31.332 165.572 31.296 164.42 31.26L164.6 32.556C166.004 32.592 167.984 32.628 168.704 32.52C169.64 32.376 169.964 31.764 169.964 30.792V24.06C172.736 23.628 175.544 23.232 177.74 22.872L177.668 21.72C175.508 22.044 172.736 22.44 169.964 22.8V21.072C172.016 19.56 174.212 17.544 175.58 15.924L174.716 15.492H174.32H174.032H167.912C169.1 14.448 170.252 13.332 171.296 12.18H177.56V10.956H172.34C174.356 8.54403 176.012 5.88003 177.272 3.00002L176.012 2.60402C174.716 5.66402 172.952 8.43602 170.72 10.956H168.956V5.91603H173.708V4.72803H168.956V0.0120239H167.588V4.72803H162.62V5.91603H167.588V10.956H160.64V12.18H169.604C168.488 13.332 167.264 14.448 165.968 15.492H164.24V16.644H164.384C162.98 17.688 161.468 18.624 159.884 19.524L160.856 20.46C162.872 19.308 164.744 18.012 166.472 16.644H173.168C172.088 17.832 170.576 19.164 169.136 20.244H168.56V23.016C165.5 23.412 162.512 23.808 160.496 24.06Z" fill="#56C6D6"/>
<path d="M202.364 3.72003V9.26402H203.768V4.98002H230.012V9.26402H231.416V3.72003H217.412V0.0120239H215.936V3.72003H202.364ZM202.904 17.4L203.192 18.732C209.096 18.444 220.112 17.832 226.88 17.4C227.852 18.264 228.716 19.128 229.472 19.992L230.588 19.128C228.356 16.716 225.188 14.124 221.192 11.568L220.256 12.396C222.272 13.728 224.072 15.024 225.656 16.356C221.156 16.608 215.072 16.896 209.924 17.112C211.724 14.808 213.416 12.324 214.568 10.38H227.996V9.19203H205.748V10.38H212.948C211.868 12.324 210.104 14.88 208.34 17.184C206.252 17.292 204.416 17.364 202.904 17.4ZM200.744 30.396V31.692H232.892V30.396H217.412V24.384H228.824V23.124H217.412V18.84H215.936V23.124H204.956V24.384H215.936V30.396H200.744Z" fill="#56C6D6"/>
</svg>
