<svg width="22" height="18" viewBox="0 0 22 18" fill="none" xmlns="http://www.w3.org/2000/svg">
<path d="M22 0.0100557C21.0424 0.685533 19.9821 1.20217 18.86 1.54006C18.2577 0.847566 17.4573 0.356748 16.567 0.133982C15.6767 -0.0887839 14.7395 -0.0327487 13.8821 0.294509C13.0247 0.621767 12.2884 1.20446 11.773 1.96377C11.2575 2.72309 10.9877 3.62239 11 4.54006V5.54006C9.24263 5.58562 7.50127 5.19587 5.93101 4.4055C4.36074 3.61513 3.01032 2.44869 2 1.01006C2 1.01006 -2 10.0101 7 14.0101C4.94053 15.408 2.48716 16.109 0 16.0101C9 21.0101 20 16.0101 20 4.51006C19.9991 4.23151 19.9723 3.95365 19.92 3.68006C20.9406 2.67355 21.6608 1.40277 22 0.0100557Z" fill="#56C6D6"/>
</svg>
