<svg width="18" height="18" viewBox="0 0 18 18" fill="none" xmlns="http://www.w3.org/2000/svg">
<path d="M5.77001 1.61C5.93701 1.60996 6.101 1.6544 6.24512 1.73877C6.38925 1.82313 6.50829 1.94437 6.59001 2.09L7.74001 4.17C7.81094 4.30403 7.84802 4.45336 7.84802 4.605C7.84802 4.75664 7.81094 4.90597 7.74001 5.04L6.65001 7.26C6.92256 8.39363 7.50008 9.43108 8.32001 10.26C9.14763 11.0796 10.186 11.6542 11.32 11.92L13.54 10.81C13.677 10.7429 13.8275 10.708 13.98 10.708C14.1325 10.708 14.283 10.7429 14.42 10.81L16.49 12C16.6317 12.0862 16.7498 12.2062 16.8336 12.3494C16.9174 12.4925 16.9643 12.6542 16.97 12.82V15.2C16.9774 15.4787 16.9177 15.755 16.796 16.0058C16.6743 16.2566 16.4942 16.4744 16.2707 16.641C16.0472 16.8077 15.787 16.9182 15.5119 16.9632C15.2368 17.0083 14.955 16.9866 14.69 16.9C12.32 16.11 8.69001 14.59 6.32001 12.26C3.95001 9.93 2.47001 6.26 1.67001 3.89C1.58309 3.62423 1.56149 3.34142 1.60706 3.06553C1.65263 2.78964 1.76402 2.5288 1.9318 2.30509C2.09958 2.08139 2.3188 1.90142 2.57089 1.78042C2.82299 1.65942 3.10053 1.60097 3.38001 1.61H5.77001Z" stroke="#56C6D6" stroke-width="1.88235" stroke-linejoin="round"/>
</svg>
