<svg width="22" height="22" viewBox="0 0 22 22" fill="none" xmlns="http://www.w3.org/2000/svg">
<path fill-rule="evenodd" clip-rule="evenodd" d="M6 2C3.79086 2 2 3.79086 2 6V16C2 18.2091 3.79086 20 6 20H16C18.2091 20 20 18.2091 20 16V6C20 3.79086 18.2091 2 16 2H6ZM0 6C0 2.68629 2.68629 0 6 0H16C19.3137 0 22 2.68629 22 6V16C22 19.3137 19.3137 22 16 22H6C2.68629 22 0 19.3137 0 16V6Z" fill="#56C6D6"/>
<path fill-rule="evenodd" clip-rule="evenodd" d="M11.4833 7.98924C10.8591 7.89668 10.2217 8.0033 9.66157 8.29392C9.10147 8.58455 8.64727 9.04438 8.36357 9.60802C8.07988 10.1717 7.98113 10.8104 8.08138 11.4334C8.18163 12.0564 8.47577 12.6319 8.92196 13.0781C9.36815 13.5243 9.94367 13.8184 10.5667 13.9187C11.1897 14.0189 11.8284 13.9202 12.392 13.6365C12.9557 13.3528 13.4155 12.8986 13.7061 12.3385C13.9968 11.7784 14.1034 11.1409 14.0108 10.5167C13.9164 9.88005 13.6197 9.2906 13.1646 8.83547C12.7095 8.38034 12.12 8.08366 11.4833 7.98924ZM8.74043 6.51868C9.67393 6.0343 10.7364 5.85661 11.7767 6.01087C12.8379 6.16823 13.8203 6.6627 14.5788 7.42126C15.3374 8.17981 15.8318 9.16222 15.9892 10.2234C16.1435 11.2637 15.9658 12.3261 15.4814 13.2596C14.997 14.1931 14.2306 14.9501 13.2912 15.423C12.3518 15.8958 11.2873 16.0604 10.2489 15.8933C9.2106 15.7262 8.2514 15.236 7.50775 14.4923C6.76409 13.7487 6.27386 12.7895 6.10678 11.7511C5.9397 10.7128 6.10428 9.64824 6.5771 8.70884C7.04993 7.76944 7.80693 7.00305 8.74043 6.51868Z" fill="#56C6D6"/>
<path fill-rule="evenodd" clip-rule="evenodd" d="M15.5 5.5C15.5 4.94772 15.9477 4.5 16.5 4.5H16.51C17.0623 4.5 17.51 4.94772 17.51 5.5C17.51 6.05228 17.0623 6.5 16.51 6.5H16.5C15.9477 6.5 15.5 6.05228 15.5 5.5Z" fill="#56C6D6"/>
</svg>
