<svg width="17" height="13" viewBox="0 0 17 13" fill="none" xmlns="http://www.w3.org/2000/svg">
<path fill-rule="evenodd" clip-rule="evenodd" d="M2.33639 2.26746H15.6669V11.7388H2.33639V2.26746ZM1.82093 0.991655C1.77191 0.984661 1.72452 0.983166 1.68001 0.985733C1.60736 0.989923 1.54562 1.00468 1.49752 1.02069C1.44958 1.03666 1.41043 1.05545 1.38083 1.07179C1.35098 1.08828 1.32642 1.10471 1.30739 1.1186C1.28817 1.13261 1.272 1.14593 1.25898 1.15732C1.23354 1.17959 1.21366 1.20023 1.19976 1.21551C1.18538 1.23133 1.17315 1.24609 1.16329 1.25852C1.01751 1.44241 0.999068 1.63315 0.997948 1.73515C0.997461 1.77951 1.00042 1.82078 1.00172 1.83882C1.0018 1.84001 1.00188 1.84111 1.00195 1.84209C1.00296 1.85639 1.00326 1.86176 1.00333 1.86286V11.8429C1.00333 11.9982 1.02691 12.2152 1.11202 12.418C1.18473 12.5913 1.41966 13 1.95313 13H16.0502C16.5914 13 16.8236 12.5791 16.8931 12.4097C16.9768 12.2058 17 11.9871 17 11.8303V1.84517C17 1.74188 17.0002 1.35283 16.6279 1.13023C16.4739 1.03816 16.3209 1.01905 16.2478 1.01244C16.1782 1.00616 16.1042 1.00624 16.0601 1.00628C16.0566 1.00629 16.0533 1.00629 16.0502 1.00629H1.96735C1.96206 1.00565 1.95672 1.00495 1.94715 1.0037C1.94574 1.00351 1.94424 1.00332 1.94264 1.00311C1.93194 1.00171 1.91438 0.999407 1.89571 0.997383L1.89459 0.997262C1.88145 0.995836 1.85528 0.992994 1.82093 0.991655ZM1.97438 1.00706C1.97439 1.00706 1.97415 1.00704 1.97365 1.00699L1.97438 1.00706Z" fill="#56C6D6"/>
<path fill-rule="evenodd" clip-rule="evenodd" d="M1.16778 2.09886L2.12526 1.1749L7.89866 6.52985C8.21141 6.80626 8.6235 6.96009 9.05164 6.96009C9.47971 6.96009 9.89172 6.80632 10.2045 6.53001L15.9043 1.23515L16.8626 2.15842L12.6039 6.11444L16.9331 11.6471L15.8338 12.417L11.6185 7.02982L11.1519 7.46325L11.1467 7.46794C10.5797 7.97286 9.83033 8.25402 9.05164 8.25402C8.27295 8.25402 7.52363 7.97286 6.95661 7.46794L6.95154 7.46342L6.48056 7.02657L2.16867 12.4222L1.0777 11.6419L5.49586 6.11324L1.16778 2.09886Z" fill="#56C6D6"/>
</svg>
