<svg width="256" height="35" viewBox="0 0 256 35" fill="none" xmlns="http://www.w3.org/2000/svg">
<path fill-rule="evenodd" clip-rule="evenodd" d="M149.798 0.247156C149.75 0.240074 149.704 0.269039 149.689 0.315625C149.392 1.24359 148.837 2.4311 148.239 3.6661H143.704C143.649 3.6661 143.604 3.71088 143.604 3.7661V16.7621C143.604 16.8173 143.649 16.8621 143.704 16.8621H149.266V20.9181H133.216C133.161 20.9181 133.116 20.9629 133.116 21.0181V22.3481C133.116 22.4033 133.161 22.4481 133.216 22.4481H147.943C144.365 26.9178 138.159 30.6805 132.649 32.7042C132.619 32.7154 132.596 32.7406 132.588 32.7718C132.579 32.803 132.586 32.8364 132.607 32.8614L133.633 34.1154C133.66 34.1491 133.706 34.1611 133.747 34.1451C139.329 31.9348 145.543 27.9904 149.266 23.2485V34.7361C149.266 34.7913 149.311 34.8361 149.366 34.8361H150.886C150.941 34.8361 150.986 34.7913 150.986 34.7361V23.2936C154.71 28.1759 160.929 31.9333 166.699 33.9565C166.738 33.9703 166.783 33.9581 166.809 33.9257L167.873 32.6337C167.894 32.6081 167.901 32.5736 167.892 32.5418C167.882 32.51 167.858 32.4849 167.826 32.4748C162.053 30.638 155.807 27.0243 152.266 22.4481H167.302C167.357 22.4481 167.402 22.4033 167.402 22.3481V21.0181C167.402 20.9629 167.357 20.9181 167.302 20.9181H150.986V16.8621H156.738C156.793 16.8621 156.838 16.8173 156.838 16.7621V3.7661C156.838 3.71088 156.793 3.6661 156.738 3.6661H149.953C150.531 2.60871 151.07 1.52391 151.435 0.611243C151.446 0.582811 151.444 0.550736 151.429 0.5242C151.413 0.497664 151.387 0.479592 151.356 0.475158L149.798 0.247156ZM199.58 0.247392C199.553 0.243087 199.526 0.249656 199.505 0.265616C199.483 0.281576 199.469 0.305582 199.465 0.332214C198.593 6.55167 196.659 12.085 193.363 17.0488C193.334 17.0914 193.343 17.1485 193.382 17.1811L194.484 18.0931C194.506 18.1112 194.535 18.1192 194.563 18.115C194.591 18.1108 194.616 18.0949 194.631 18.0712C195.904 16.1441 196.968 14.1136 197.89 12.0133C198.797 17.0198 200.102 21.2376 201.843 24.7349C199.537 28.194 196.367 31.0205 192.253 33.5873C192.227 33.6036 192.21 33.631 192.207 33.6616C192.203 33.6922 192.214 33.7227 192.237 33.744L193.339 34.808C193.372 34.8402 193.423 34.8453 193.462 34.8204C197.296 32.3768 200.355 29.6341 202.708 26.3718C204.831 30.1169 207.516 32.9356 210.799 34.8604C210.839 34.8837 210.89 34.8768 210.922 34.8436L212.062 33.6656C212.083 33.6433 212.093 33.6123 212.089 33.5816C212.084 33.5509 212.066 33.524 212.039 33.5089C208.614 31.5894 205.862 28.7324 203.745 24.8212C206.385 20.5024 207.934 15.2855 208.435 8.7301H211.496C211.551 8.7301 211.596 8.68533 211.596 8.6301V7.2241C211.596 7.16888 211.551 7.1241 211.496 7.1241H199.623C200.251 5.03121 200.733 2.86464 201.069 0.5887C201.077 0.534614 201.04 0.484145 200.986 0.475394L199.58 0.247392ZM11.426 0.246102C11.3707 0.246102 11.326 0.290874 11.326 0.346102V3.1341H0.785964C0.730735 3.1341 0.685964 3.17888 0.685964 3.2341V4.4501C0.685964 4.50533 0.730735 4.5501 0.785964 4.5501H11.326V7.4901C11.326 7.54533 11.3707 7.5901 11.426 7.5901H12.908C12.9632 7.5901 13.008 7.54533 13.008 7.4901V4.5501H22.764V7.4901C22.764 7.54533 22.8087 7.5901 22.864 7.5901H24.384C24.4392 7.5901 24.484 7.54533 24.484 7.4901V4.5501H35.138C35.1932 4.5501 35.238 4.50533 35.238 4.4501V3.2341C35.238 3.17888 35.1932 3.1341 35.138 3.1341H24.484V0.346102C24.484 0.290874 24.4392 0.246102 24.384 0.246102H22.864C22.8087 0.246102 22.764 0.290874 22.764 0.346102V3.1341H13.008V0.346102C13.008 0.290874 12.9632 0.246102 12.908 0.246102H11.426ZM105.248 0.246102C105.193 0.246102 105.148 0.290874 105.148 0.346102V4.4641H91.492C91.4367 4.4641 91.392 4.50887 91.392 4.5641V5.8181C91.392 5.87333 91.4367 5.9181 91.492 5.9181H98.4397L97.3068 6.37126C97.2796 6.38214 97.2586 6.40441 97.2492 6.43218C97.2398 6.45995 97.2431 6.49042 97.2582 6.51555C98.4825 8.55608 99.4885 11.1065 99.919 13.1281H88.946C88.8907 13.1281 88.846 13.1729 88.846 13.2281V14.4821C88.846 14.5373 88.8907 14.5821 88.946 14.5821H123.298C123.353 14.5821 123.398 14.5373 123.398 14.4821V13.2281C123.398 13.1729 123.353 13.1281 123.298 13.1281H111.962C113.372 10.8098 114.666 8.2907 115.486 6.38971C115.497 6.36341 115.497 6.33349 115.484 6.30756C115.472 6.28163 115.45 6.26218 115.422 6.25413L114.274 5.9181H120.942C120.997 5.9181 121.042 5.87333 121.042 5.8181V4.5641C121.042 4.50887 120.997 4.4641 120.942 4.4641H106.868V0.346102C106.868 0.290874 106.823 0.246102 106.768 0.246102H105.248ZM101.645 13.1281C101.251 11.0798 100.164 8.28078 98.7817 5.9181H113.721C113 7.87024 111.624 10.6228 110.168 13.1281H101.645ZM184.554 0.246102C184.499 0.246102 184.454 0.290874 184.454 0.346102V5.2241H179.31C179.255 5.2241 179.21 5.26888 179.21 5.3241V6.5781C179.21 6.63333 179.255 6.6781 179.31 6.6781H184.454V11.7981H177.22C177.165 11.7981 177.12 11.8429 177.12 11.8981V13.1901C177.12 13.2453 177.165 13.2901 177.22 13.2901H186.445C185.323 14.4349 184.1 15.5443 182.809 16.5861H181.02C180.965 16.5861 180.92 16.6309 180.92 16.6861V17.9021C180.92 17.9209 180.925 17.9384 180.934 17.9534C179.507 18.9995 177.976 19.9443 176.373 20.8552C176.345 20.8707 176.327 20.8983 176.323 20.9296C176.319 20.9609 176.33 20.9923 176.353 21.0141L177.379 22.0021C177.411 22.0329 177.459 22.039 177.498 22.0169C179.62 20.8042 181.591 19.4409 183.411 18.0021H190.216C189.101 19.1998 187.595 20.5192 186.155 21.6021H185.58C185.525 21.6021 185.48 21.6469 185.48 21.7021V24.5402C184.366 24.6844 183.263 24.8284 182.208 24.966L182.207 24.9662C180.232 25.2239 178.43 25.4591 177.056 25.6309C177.028 25.6343 177.003 25.649 176.987 25.6714C176.971 25.6938 176.965 25.722 176.97 25.7492L177.236 27.1172C177.246 27.1694 177.295 27.2045 177.348 27.1971C179.487 26.8969 182.406 26.4853 185.48 26.0358V32.5701C185.48 32.811 185.442 32.9702 185.352 33.075C185.264 33.178 185.107 33.25 184.814 33.2683L184.812 33.2684C184.325 33.3059 182.432 33.2682 181.213 33.2302C181.184 33.2292 181.155 33.2413 181.136 33.2633C181.116 33.2852 181.107 33.3147 181.111 33.3439L181.301 34.7119C181.308 34.7603 181.348 34.7968 181.397 34.7981C182.139 34.8171 183.033 34.8361 183.837 34.8361C184.638 34.8361 185.359 34.8172 185.747 34.7589C186.262 34.6797 186.622 34.4687 186.85 34.1319C187.075 33.7993 187.162 33.3578 187.162 32.8361V25.8157C188.382 25.6259 189.609 25.4426 190.792 25.2658L190.793 25.2656L190.793 25.2655C192.417 25.0228 193.958 24.7925 195.286 24.5748C195.337 24.5665 195.373 24.5211 195.37 24.4699L195.294 23.2539C195.292 23.2259 195.279 23.1999 195.257 23.1823C195.235 23.1647 195.207 23.1571 195.179 23.1612C192.929 23.4987 190.049 23.9103 187.162 24.2863V22.6266C189.321 21.0302 191.626 18.9129 193.066 17.2066C193.086 17.1832 193.094 17.152 193.088 17.1219C193.082 17.0919 193.062 17.0664 193.035 17.0527L192.123 16.5967C192.115 16.593 192.108 16.5902 192.1 16.5885C192.092 16.5869 192.085 16.5861 192.078 16.5861H185.16C186.335 15.5426 187.474 14.4335 188.512 13.2901H195.08C195.135 13.2901 195.18 13.2453 195.18 13.1901V11.8981C195.18 11.8429 195.135 11.7981 195.08 11.7981H189.783C191.855 9.28837 193.562 6.5238 194.868 3.54018C194.879 3.51417 194.879 3.48454 194.867 3.45869C194.855 3.43285 194.833 3.41322 194.806 3.4047L193.476 2.9867C193.427 2.97126 193.374 2.99567 193.354 3.0431C191.996 6.24919 190.15 9.15495 187.815 11.7981H186.098V6.6781H191.014C191.069 6.6781 191.114 6.63333 191.114 6.5781V5.3241C191.114 5.26888 191.069 5.2241 191.014 5.2241H186.098V0.346102C186.098 0.290874 186.053 0.246102 185.998 0.246102H184.554ZM237.488 0.246102C237.433 0.246102 237.388 0.290874 237.388 0.346102V4.1601H223.162C223.107 4.1601 223.062 4.20488 223.062 4.2601V10.1121C223.062 10.1673 223.107 10.2121 223.162 10.2121H224.644C224.699 10.2121 224.744 10.1673 224.744 10.1121V5.6901H252.246V10.1121C252.246 10.1673 252.291 10.2121 252.346 10.2121H253.828C253.883 10.2121 253.928 10.1673 253.928 10.1121V4.2601C253.928 4.20488 253.883 4.1601 253.828 4.1601H239.146V0.346102C239.146 0.290874 239.101 0.246102 239.046 0.246102H237.488ZM49.768 1.1961C49.7127 1.1961 49.668 1.24088 49.668 1.2961V16.0781C49.668 22.7172 48.4538 28.8465 44.4462 33.7992C44.4288 33.8207 44.4211 33.8485 44.4249 33.8759C44.4287 33.9032 44.4437 33.9278 44.4663 33.9438L45.7583 34.8558C45.8017 34.8865 45.8616 34.8778 45.8945 34.836C50.0178 29.6055 51.388 23.0439 51.388 16.0781V1.2961C51.388 1.24088 51.3432 1.1961 51.288 1.1961H49.768ZM74.126 1.1961C74.0707 1.1961 74.026 1.24088 74.026 1.2961V34.7361C74.026 34.7913 74.0707 34.8361 74.126 34.8361H75.646C75.7012 34.8361 75.746 34.7913 75.746 34.7361V1.2961C75.746 1.24088 75.7012 1.1961 75.646 1.1961H74.126ZM164.65 1.32117C164.606 1.29869 164.552 1.31132 164.523 1.35097C163.275 3.05291 160.887 5.51762 158.532 7.68249C158.509 7.704 158.497 7.73535 158.501 7.76695C158.504 7.79855 158.522 7.82662 158.55 7.84258L159.728 8.52658C159.765 8.54826 159.812 8.54353 159.844 8.51485C162.242 6.38373 164.564 3.94781 166.012 2.15697C166.031 2.13358 166.038 2.1029 166.032 2.07346C166.026 2.04402 166.006 2.01894 165.98 2.00517L164.65 1.32117ZM135.674 1.37091C135.637 1.34105 135.585 1.34045 135.548 1.36947L134.484 2.20547C134.46 2.22422 134.446 2.25278 134.446 2.28311C134.446 2.31345 134.459 2.34229 134.483 2.3615C136.985 4.40912 138.916 6.4546 140.24 8.34545C140.271 8.3896 140.331 8.40132 140.376 8.37195L140.496 8.29417L140.496 8.29408C141.165 7.85936 141.373 7.72374 141.615 7.62002C141.643 7.60804 141.664 7.584 141.672 7.55469C141.68 7.52538 141.675 7.49399 141.657 7.46938C140.244 5.5224 138.262 3.50235 135.674 1.37091ZM61.548 3.4761C61.4927 3.4761 61.448 3.52088 61.448 3.5761V30.8981C61.448 30.9533 61.4927 30.9981 61.548 30.9981H63.068C63.1232 30.9981 63.168 30.9533 63.168 30.8981V3.5761C63.168 3.52088 63.1232 3.4761 63.068 3.4761H61.548ZM145.248 9.5181V5.1201H155.156V9.5181H145.248ZM8.97656 6.21425C8.92648 6.2037 8.87652 6.23268 8.8608 6.28138C7.30895 11.0883 4.31781 15.406 0.452588 18.9302C0.429852 18.9509 0.417925 18.981 0.42025 19.0117C0.422575 19.0423 0.438893 19.0702 0.464494 19.0873L1.71849 19.9233C1.75723 19.9491 1.80865 19.9448 1.84253 19.9129C4.45755 17.4495 6.69584 14.5713 8.40744 11.4281H30.2086C29.9816 18.2357 29.7451 23.3674 29.4428 26.9234C29.2909 28.7106 29.1226 30.0971 28.9312 31.0972C28.8355 31.5974 28.7345 31.9983 28.6278 32.3034C28.5202 32.6111 28.4104 32.8103 28.3033 32.9174C28.0259 33.1947 27.7153 33.268 27.272 33.268L27.2683 33.2682C26.246 33.306 24.1604 33.2681 22.9493 33.1545C22.9199 33.1518 22.8907 33.1622 22.8697 33.1829C22.8487 33.2037 22.8379 33.2327 22.8403 33.2622L22.9543 34.6682C22.9583 34.7179 22.9983 34.757 23.0481 34.7599C24.3416 34.836 26.5471 34.8741 27.5778 34.8361C28.5096 34.8358 29.1047 34.601 29.6198 34.1256L29.6215 34.124C29.7853 33.9655 29.9299 33.7 30.0619 33.3414C30.1948 32.9803 30.3186 32.514 30.4349 31.9435C30.6675 30.8023 30.8722 29.2342 31.0575 27.2356C31.4283 23.2379 31.7229 17.5069 32.0079 10.0019C32.0089 9.97474 31.9989 9.94833 31.98 9.92875C31.9612 9.90917 31.9351 9.8981 31.908 9.8981H9.18628C9.65932 8.8394 10.1294 7.74411 10.4948 6.64773C10.5038 6.62068 10.5009 6.59108 10.4867 6.56635C10.4725 6.54162 10.4485 6.52412 10.4206 6.51825L8.97656 6.21425ZM199.021 9.02224L199.138 8.7301H206.752C206.296 14.5508 205.039 19.2018 202.878 23.0802C201.106 19.2908 199.843 14.6178 199.021 9.02224ZM226.734 9.9361C226.679 9.9361 226.634 9.98088 226.634 10.0361V11.2901C226.634 11.3453 226.679 11.3901 226.734 11.3901H234.163C233.026 13.4063 231.225 16.0125 229.419 18.3746C227.234 18.4873 225.313 18.5624 223.73 18.6001C223.7 18.6008 223.672 18.6148 223.653 18.6382C223.635 18.6617 223.628 18.6921 223.634 18.7212L223.938 20.1272C223.949 20.1751 223.992 20.2084 224.041 20.206C230.261 19.9026 241.857 19.2584 249.005 18.8026C250.015 19.7029 250.914 20.6027 251.701 21.502C251.736 21.5418 251.795 21.5476 251.837 21.5152L253.015 20.6032C253.037 20.586 253.051 20.5603 253.054 20.5324C253.056 20.5044 253.046 20.4768 253.027 20.4562C250.664 17.9024 247.313 15.1611 243.09 12.4599C243.052 12.4358 243.003 12.4396 242.97 12.4692L241.982 13.3432C241.958 13.3638 241.946 13.3941 241.948 13.4251C241.95 13.4561 241.967 13.4844 241.993 13.5015C244.037 14.8521 245.869 16.1665 247.489 17.5124C242.83 17.7714 236.644 18.0642 231.354 18.2871C233.191 15.92 234.912 13.3906 236.101 11.3901H250.218C250.273 11.3901 250.318 11.3453 250.318 11.2901V10.0361C250.318 9.98088 250.273 9.9361 250.218 9.9361H226.734ZM145.248 15.4081V10.8201H155.156V15.4081H145.248ZM159.527 10.9011C159.487 10.8767 159.436 10.8826 159.403 10.9154L158.453 11.8654C158.432 11.8869 158.421 11.9169 158.425 11.9471C158.428 11.9773 158.445 12.0043 158.47 12.0206C161.584 13.9948 164.164 15.8545 166.213 17.5236C166.251 17.5551 166.307 17.5533 166.344 17.5194L167.408 16.5314C167.429 16.5116 167.441 16.4835 167.44 16.4544C167.439 16.4254 167.425 16.3982 167.402 16.38C165.309 14.7051 162.721 12.8788 159.527 10.9011ZM141.558 11.5678C141.55 11.5377 141.528 11.5132 141.5 11.5014C141.471 11.4897 141.438 11.4921 141.411 11.508C138.904 12.9893 135.106 15.1165 133.017 16.2176C132.994 16.2301 132.976 16.2515 132.968 16.2771C132.961 16.3027 132.963 16.3303 132.976 16.3538L133.698 17.6838C133.711 17.7076 133.733 17.7251 133.759 17.7324C133.785 17.7397 133.813 17.7361 133.836 17.7224C135.851 16.5441 139.423 14.4158 141.856 12.9335C141.894 12.9103 141.912 12.8648 141.9 12.8218L141.558 11.5678ZM15.074 12.8621C15.0187 12.8621 14.974 12.9069 14.974 12.9621V20.6521H3.59796C3.54274 20.6521 3.49796 20.6969 3.49796 20.7521V22.0441C3.49796 22.0993 3.54274 22.1441 3.59796 22.1441H13.8629C11.1995 26.1668 6.64398 29.7371 2.60458 31.682C2.57595 31.6958 2.55557 31.7224 2.54969 31.7536C2.54381 31.7848 2.55312 31.817 2.57477 31.8402L3.60077 32.9422C3.63147 32.9752 3.68042 32.9836 3.72033 32.9627C7.70785 30.8758 12.2076 27.2943 14.974 23.0685V33.5201C14.974 33.5753 15.0187 33.6201 15.074 33.6201H16.518C16.5732 33.6201 16.618 33.5753 16.618 33.5201V23.9973C19.6853 26.4006 22.945 29.2191 24.8467 31.0462C24.8663 31.065 24.8927 31.0751 24.9198 31.074C24.9469 31.073 24.9725 31.061 24.9906 31.0407L25.9406 29.9767C25.9773 29.9355 25.9738 29.8723 25.9326 29.8355C23.8101 27.9404 20.0289 24.8771 16.618 22.2983V22.1441H27.576C27.6312 22.1441 27.676 22.0993 27.676 22.0441V20.7521C27.676 20.6969 27.6312 20.6521 27.576 20.6521H16.618V12.9621C16.618 12.9069 16.5732 12.8621 16.518 12.8621H15.074ZM23.928 13.7816C23.8803 13.762 23.8254 13.7819 23.8014 13.8276C23.0086 15.3378 21.4563 17.4211 19.8608 19.3585C19.8417 19.3817 19.8341 19.4121 19.8399 19.4415C19.8457 19.4709 19.8643 19.4961 19.8907 19.5103L20.9547 20.0803C20.9961 20.1024 21.0472 20.0928 21.0778 20.0573C22.7143 18.1544 24.2756 16.0602 25.267 14.4587C25.2824 14.4338 25.2861 14.4033 25.2771 14.3753C25.2681 14.3474 25.2472 14.3248 25.22 14.3136L23.928 13.7816ZM8.39015 13.9284C8.35934 13.887 8.30214 13.8759 8.25807 13.9026L7.19407 14.5486C7.17009 14.5632 7.15333 14.5871 7.14787 14.6147C7.14242 14.6422 7.14877 14.6707 7.16538 14.6933C8.52971 16.5503 9.51186 18.2894 10.0775 19.911C10.0868 19.9376 10.1068 19.959 10.1326 19.97C10.1585 19.9811 10.1878 19.9808 10.2133 19.9691L11.4673 19.3991C11.5158 19.3771 11.5385 19.3209 11.519 19.2713C10.8687 17.6267 9.83753 15.8709 8.39015 13.9284ZM95.216 18.4861C95.1607 18.4861 95.116 18.5309 95.116 18.5861V34.7361C95.116 34.7913 95.1607 34.8361 95.216 34.8361H96.698C96.7532 34.8361 96.798 34.7913 96.798 34.7361V33.6581H115.56V34.7361C115.56 34.7913 115.605 34.8361 115.66 34.8361H117.18C117.235 34.8361 117.28 34.7913 117.28 34.7361V18.5861C117.28 18.5309 117.235 18.4861 117.18 18.4861H95.216ZM96.798 25.1361V19.9781H115.56V25.1361H96.798ZM237.488 20.1201C237.433 20.1201 237.388 20.1649 237.388 20.2201V24.6421H225.898C225.843 24.6421 225.798 24.6869 225.798 24.7421V26.0721C225.798 26.1273 225.843 26.1721 225.898 26.1721H237.388V32.3181H221.452C221.397 32.3181 221.352 32.3629 221.352 32.4181V33.7861C221.352 33.8413 221.397 33.8861 221.452 33.8861H255.386C255.441 33.8861 255.486 33.8413 255.486 33.7861V32.4181C255.486 32.3629 255.441 32.3181 255.386 32.3181H239.146V26.1721H251.092C251.147 26.1721 251.192 26.1273 251.192 26.0721V24.7421C251.192 24.6869 251.147 24.6421 251.092 24.6421H239.146V20.2201C239.146 20.1649 239.101 20.1201 239.046 20.1201H237.488ZM96.798 32.1661V26.5901H115.56V32.1661H96.798Z" fill="white"/>
</svg>
