<svg width="12" height="102" viewBox="0 0 12 102" fill="none" xmlns="http://www.w3.org/2000/svg">
<path d="M0.556015 4.05271C0.556015 5.98471 2.33401 7.23071 5.91801 7.23071C9.47401 7.23071 11.196 5.98471 11.196 4.05271C11.196 2.09271 9.47401 0.84671 5.91801 0.84671C2.33401 0.84671 0.556015 2.09271 0.556015 4.05271ZM1.59201 4.05271C1.59201 2.87671 2.89401 2.07871 5.91801 2.07871C8.90001 2.07871 10.174 2.87671 10.174 4.05271C10.174 5.21471 8.90001 5.99871 5.91801 5.99871C2.89401 5.99871 1.59201 5.21471 1.59201 4.05271Z" fill="#56C6D6"/>
<path d="M0.556015 11.7623C0.556014 13.6943 2.15201 15.4863 6.32401 15.4863C9.58601 15.4863 11.196 14.0163 11.196 12.0423C11.196 10.4463 9.85201 9.10234 7.86401 9.10234C5.73601 9.10234 4.64401 10.2083 4.64401 11.9303C4.64401 12.8123 5.17601 13.7223 5.98801 14.3663L7.01001 14.2963C5.98801 13.6243 5.58201 12.8263 5.58201 12.1403C5.58201 10.9223 6.49201 10.3063 7.86401 10.3063C9.27801 10.3063 10.202 11.0623 10.202 12.0423C10.202 13.4843 8.84401 14.2823 6.32401 14.2823C2.81001 14.2823 1.62001 13.0923 1.62001 11.7203C1.62001 11.0623 1.91401 10.4323 2.41801 9.99834L1.60601 9.28434C1.00401 9.85834 0.556015 10.6423 0.556015 11.7623Z" fill="#56C6D6"/>
<path d="M0.556014 20.704C0.556014 22.636 2.33401 23.882 5.91801 23.882C9.47401 23.882 11.196 22.636 11.196 20.704C11.196 18.744 9.47401 17.498 5.91801 17.498C2.33401 17.498 0.556014 18.744 0.556014 20.704ZM1.59201 20.704C1.59201 19.528 2.89401 18.73 5.91801 18.73C8.90001 18.73 10.174 19.528 10.174 20.704C10.174 21.866 8.90001 22.65 5.91801 22.65C2.89401 22.65 1.59201 21.866 1.59201 20.704Z" fill="#56C6D6"/>
<path d="M4.16801 25.7816L4.16801 29.3656L5.14801 29.3656L5.14801 25.7816L4.16801 25.7816Z" fill="#56C6D6"/>
<path d="M0.556014 34.7651C0.556013 36.3471 1.90001 37.7051 3.88801 37.7051C6.04401 37.7051 7.10801 36.5851 7.10801 34.8491C7.10801 34.0231 6.60401 33.0711 5.77801 32.4411L4.75601 32.4831C5.77801 33.1691 6.17001 33.9951 6.17001 34.6531C6.17001 35.8851 5.28801 36.5011 3.88801 36.5011C2.50201 36.5011 1.56401 35.7451 1.56401 34.7651C1.56401 33.3231 3.00601 32.5251 5.63801 32.5251C8.99801 32.5251 10.132 33.7291 10.132 35.1711C10.132 35.7871 9.83801 36.4171 9.36201 36.8091L10.146 37.5231C10.748 36.9631 11.196 36.1791 11.196 35.1151C11.196 33.1271 9.65601 31.3211 5.63801 31.3211C2.25001 31.3211 0.556014 32.7911 0.556014 34.7651Z" fill="#56C6D6"/>
<path d="M0.752012 40.1087L0.752012 45.7367L1.81601 45.7367L1.81601 43.6647L11.014 43.6647L11.014 42.6847C10.678 42.1387 10.44 41.4807 10.286 40.5567L9.46001 40.5567L9.46001 42.3907L1.81601 42.3907L1.81601 40.1087L0.752012 40.1087Z" fill="#56C6D6"/>
<path d="M0.556013 51.4164C0.556013 52.9984 1.90001 54.3563 3.88801 54.3563C6.04401 54.3563 7.10801 53.2364 7.10801 51.5004C7.10801 50.6744 6.60401 49.7223 5.77801 49.0923L4.75601 49.1343C5.77801 49.8203 6.17001 50.6464 6.17001 51.3044C6.17001 52.5364 5.28801 53.1524 3.88801 53.1524C2.50201 53.1524 1.56401 52.3964 1.56401 51.4164C1.56401 49.9744 3.00601 49.1763 5.63801 49.1763C8.99801 49.1763 10.132 50.3803 10.132 51.8223C10.132 52.4383 9.83801 53.0684 9.36201 53.4603L10.146 54.1744C10.748 53.6144 11.196 52.8303 11.196 51.7663C11.196 49.7783 9.65601 47.9724 5.63801 47.9724C2.25001 47.9724 0.556013 49.4424 0.556013 51.4164Z" fill="#56C6D6"/>
<path d="M0.556012 59.434C0.556012 61.352 1.71801 62.654 3.21601 62.654C4.61601 62.654 5.40001 61.814 5.91801 60.918L5.98801 60.918C6.46401 61.534 7.37401 62.29 8.46601 62.29C10.034 62.29 11.154 61.226 11.154 59.476C11.154 57.866 10.118 56.648 8.56401 56.648C7.48601 56.648 6.70201 57.292 6.18401 58.048L6.12801 58.048C5.62401 57.11 4.67201 56.158 3.28601 56.158C1.70401 56.158 0.556013 57.544 0.556012 59.434ZM6.31001 60.134C6.78601 58.93 7.33201 57.824 8.56401 57.824C9.54401 57.824 10.216 58.51 10.216 59.448C10.216 60.554 9.40401 61.198 8.39601 61.198C7.62601 61.198 6.92601 60.834 6.31001 60.134ZM1.52201 59.462C1.52201 58.23 2.32001 57.306 3.41201 57.306C4.39201 57.306 5.20401 57.88 5.73601 58.72C5.14801 60.162 4.63001 61.422 3.25801 61.422C2.23601 61.422 1.52201 60.638 1.52201 59.462Z" fill="#56C6D6"/>
<path d="M4.16801 64.4976L4.16801 68.0816L5.14801 68.0816L5.14801 64.4976L4.16801 64.4976Z" fill="#56C6D6"/>
<path d="M0.752011 69.8831L0.752011 76.3231L1.84401 76.3231L1.84401 73.4811C1.84401 72.9631 1.80201 72.3471 1.74601 71.8011C4.02801 74.2231 6.11401 75.8331 8.17201 75.8331C10.006 75.8331 11.196 74.6851 11.196 72.8511C11.196 71.5491 10.594 70.6531 9.68401 69.8131L8.97001 70.5551C9.64201 71.1291 10.16 71.8571 10.16 72.6971C10.16 73.9711 9.29201 74.5731 8.11601 74.5731C6.36601 74.5731 4.30801 73.1031 1.49401 69.8831L0.752011 69.8831Z" fill="#56C6D6"/>
<path d="M0.556012 80.8687C0.556011 82.8007 2.15201 84.5927 6.32401 84.5927C9.58601 84.5927 11.196 83.1227 11.196 81.1487C11.196 79.5527 9.85201 78.2087 7.86401 78.2087C5.73601 78.2087 4.64401 79.3147 4.64401 81.0367C4.64401 81.9187 5.17601 82.8287 5.98801 83.4727L7.01001 83.4027C5.98801 82.7307 5.58201 81.9327 5.58201 81.2467C5.58201 80.0287 6.49201 79.4127 7.86401 79.4127C9.27801 79.4127 10.202 80.1687 10.202 81.1487C10.202 82.5907 8.84401 83.3887 6.32401 83.3887C2.81001 83.3887 1.62001 82.1987 1.62001 80.8267C1.62001 80.1687 1.91401 79.5387 2.41801 79.1047L1.60601 78.3907C1.00401 78.9647 0.556012 79.7487 0.556012 80.8687Z" fill="#56C6D6"/>
<path d="M0.556011 89.5724C0.556011 91.2944 1.84401 92.9324 4.08401 92.9324C6.35201 92.9324 7.36001 91.5464 7.36001 89.8384C7.36001 89.2224 7.20601 88.7604 6.95401 88.2984L9.92201 88.5644L9.92201 92.4424L11.014 92.4424L11.014 87.4444L6.21201 87.1224L5.77801 87.8084C6.17001 88.3964 6.39401 88.8304 6.39401 89.5164C6.39401 90.7904 5.51201 91.6304 4.04201 91.6304C2.55801 91.6304 1.62001 90.6644 1.62001 89.4464C1.62001 88.2704 2.16601 87.5144 2.76801 86.9404L1.92801 86.2964C1.22801 86.9964 0.556011 87.9764 0.556011 89.5724Z" fill="#56C6D6"/>
<path d="M0.556011 98.136C0.556011 100.068 2.33401 101.314 5.91801 101.314C9.47401 101.314 11.196 100.068 11.196 98.136C11.196 96.176 9.47401 94.93 5.91801 94.93C2.33401 94.93 0.556011 96.176 0.556011 98.136ZM1.59201 98.136C1.59201 96.96 2.89401 96.162 5.91801 96.162C8.90001 96.162 10.174 96.96 10.174 98.136C10.174 99.298 8.90001 100.082 5.91801 100.082C2.89401 100.082 1.59201 99.298 1.59201 98.136Z" fill="#56C6D6"/>
</svg>
