<svg id="logo_type" xmlns="http://www.w3.org/2000/svg" viewBox="0 0 1945.09 410.8"><title>SUMMY_logo</title><path d="M336.46,30.91h-96.2v81.55h-19.4c0-6.48-.56-13,.11-19.35,1.62-15.12-4.67-27.2-13.67-38.4-25.74-32-75.4-43.93-112.55-27.59-32.62,14.36-52.64,58.12-24.57,94.6C81.89,137,97,148,113.55,157.27,136.39,170,159.42,182.42,182,195.54a174.48,174.48,0,0,1,47.33,40.29c38,46,32.67,137.24-48.45,164.55-32.78,11-66.33,14.62-100.15,4.24C58.32,397.73,39.21,385.26,23,368.28a24.72,24.72,0,0,1-2.6-4.09l-1.68,1.08V398.7H0V298H18.7c0,9.26.38,18.39-.13,27.47-.35,6.27,1.7,11.1,5.29,16,16.82,23,37.63,40.43,65.91,47.41A114.67,114.67,0,0,0,152,387.22c48.41-14.94,65.8-70,35.49-111.89-10.28-14.19-24-24.41-39-33.08-23.36-13.52-46.85-26.82-70.11-40.51a172.15,172.15,0,0,1-42.74-35c-45-51.54-29.81-125,32.53-153,37.37-16.85,76-18.72,114.4-2.2,14.13,6.08,26.4,14.84,36,27.11a23.93,23.93,0,0,0,2.15,2V11.74H427.14V30.49H385.92c-.19,2.05-.43,3.49-.43,4.92,0,84.49-.12,169,.32,253.49a168.33,168.33,0,0,0,4.64,39.52c5.83,23.46,23.09,37.7,44.1,47.34,49.25,22.62,111.21,2.73,137.64-43.71,6.56-11.53,10.29-23.94,10.31-37.17q.21-130.49.12-261c0-.82-.16-1.64-.32-3.17H543.79V11.79H771.52c40.92,65.62,82,131.47,123.6,198.17L1028.79,11.65h117.64V30.44h-65.8V379.68h45v19H982.82V379.87h47.71V43.2L905.79,228.45c.8,1.56,1.61,3.16,2.44,4.74,15,28.6,25.73,58.55,28.76,90.89,1.75,18.65.48,37-7.43,54.35-6.74,14.75-16.81,26.15-33.74,29.07-22.48,3.88-43.15-6.33-54.42-26.85-11-20.1-11.41-41.48-6.37-63.18,5-21.41,15.66-40.26,27.3-58.63.88-1.39,1.75-2.79,2.79-4.44-42.21-67.34-84.38-134.62-127.36-203.17v328.5h45.09v18.82H671.36V380h46.26v-349H602.13c-.1,2-.3,4.12-.3,6.21,0,82.16-.94,164.34.35,246.48.73,47.05-20.12,79.7-59.63,101.82-50.49,28.27-101.51,26.18-150.9-2.1-37.18-21.3-54.74-55.71-55-98.12-.54-82.49-.17-165-.17-247.49ZM875.71,273.19a12.12,12.12,0,0,1-.77,1.53c-8.61,13-15.87,26.63-20.1,41.65-5.6,19.89-5.81,39.47,5.24,57.93,6.82,11.39,17.16,15.69,30,14.63,7-.58,11.59-4.41,14.08-11,3.64-9.58,4.33-19.43,3.05-29.49-3.51-27.43-16.94-50.87-30-74.48C877.13,273.75,876.7,273.69,875.71,273.19Z" transform="translate(0 0)" style="fill:#fff"/><path d="M1556.67,30.92V379.68h45.46v18.93H1459.08V380H1507V43.13L1382.51,228c4.71,10.24,9.64,20.05,13.8,30.17,9.49,23.08,16.33,46.88,17.55,72,.82,16.85-1.09,33.26-8.11,48.83-18.43,40.92-64.49,35.26-84,7.88-12.17-17.1-15-36.38-12.64-56.68,3-26.58,15.78-49.21,29.6-71.35.71-1.13,1.47-2.23,2.18-3.36a7.24,7.24,0,0,0,.43-1.4L1214.81,52.24l-.86.36V379.7h45.37v19H1147.69V380h46.6V30.72h-46.56V11.47h5.42c29.83,0,59.67.08,89.5-.1,3.85,0,5.93,1.23,7.93,4.45q58.85,94.68,117.9,189.22c.86,1.38,1.79,2.71,3.08,4.66,1.41-2,2.56-3.53,3.63-5.13q63.55-94.32,127-188.68c2.2-3.29,4.51-4.52,8.47-4.51q83.25.19,166.49.09h5.71v19h-38.94c37.65,60.37,74.6,119.64,111.94,179.53L1876.67,30.72H1838V11.91h107.12V30.59h-12.73c-9.16,0-18.33.19-27.49-.09-3.8-.12-6,1.13-8.12,4.29q-55,82-110.15,163.87c-6.88,10.23-13.84,20.4-20.56,30.74a13.36,13.36,0,0,0-2.22,6.87q-.19,69.5-.09,139c0,1.29.19,2.59.34,4.49h45.22v18.82h-143V380h48.25v-6q0-66.51-.09-133a15.49,15.49,0,0,0-2.1-7.9q-61.89-98.67-123.94-197.23c-2.34-3.74-4.78-5.24-9.17-5C1571.83,31.19,1564.35,30.92,1556.67,30.92ZM1353.18,273.05a11.87,11.87,0,0,0-1.72,1.59c-10.35,15.66-18.84,32.17-22.34,50.83-3.17,16.88-1.81,33.15,7.05,48.31,6.67,11.43,16.84,16.06,29.74,15.24,7.43-.47,12.18-4.42,14.81-11.42,4.75-12.66,4.13-25.48,1.39-38.34-4.46-20.92-14.53-39.55-24.33-58.27C1356.42,278.37,1354.82,275.87,1353.18,273.05Z" transform="translate(0 0)" style="fill:#fff"/></svg>